# Blender v2.93.0 OBJ File: ''
# www.blender.org
mtllib Jaco2_power_max.mtl
o Jaco2_power_max
v 2.000000 0.000000 0.000000
v 4.600000 4.100000 0.000000
v 3.900000 5.700000 0.000000
v -3.900000 5.700000 0.000000
v -4.600000 4.100000 0.000000
v -2.000000 0.000000 0.000000
v 2.000000 0.000000 8.500000
v 4.600000 4.100000 8.500000
v 3.900000 5.700000 8.500000
v -3.900000 5.700000 8.500000
v -4.600000 4.100000 8.500000
v -2.000000 0.000000 8.500000
vn 0.0000 0.0000 -1.0000
vn 0.0000 0.0000 1.0000
vn 0.0000 -1.0000 0.0000
vn 0.8445 -0.5355 0.0000
vn 0.9162 0.4008 0.0000
vn 0.0000 1.0000 0.0000
vn -0.9162 0.4008 0.0000
vn -0.8445 -0.5355 0.0000
usemtl None
s off
f 3//1 2//1 1//1
f 10//2 11//2 12//2
f 7//3 6//3 1//3
f 2//4 7//4 1//4
f 3//5 8//5 2//5
f 4//6 9//6 3//6
f 5//7 10//7 4//7
f 6//8 11//8 5//8
f 1//1 6//1 4//1
f 6//1 5//1 4//1
f 4//1 3//1 1//1
f 12//2 7//2 9//2
f 7//2 8//2 9//2
f 9//2 10//2 12//2
f 7//3 12//3 6//3
f 2//4 8//4 7//4
f 3//5 9//5 8//5
f 4//6 10//6 9//6
f 5//7 11//7 10//7
f 6//8 12//8 11//8
